<svg xmlns="http://www.w3.org/2000/svg" xmlns:xlink="http://www.w3.org/1999/xlink" width="1000" zoomAndPan="magnify" viewBox="0 0 750 187.499995" height="250" preserveAspectRatio="xMidYMid meet" version="1.2"><defs/><g id="e860207865"><g style="fill:#a0332b;fill-opacity:1;"><g transform="translate(483.72924, 131.169394)"><path style="stroke:none" d="M 74.734375 -74.59375 C 74.554688 -74.507812 74.226562 -74.488281 73.75 -74.53125 C 73.28125 -74.570312 72.6875 -74.59375 71.96875 -74.59375 C 65.882812 -74.59375 62.84375 -64.910156 62.84375 -45.546875 L 62.84375 -42.90625 C 62.84375 -39.394531 63.160156 -34.035156 63.796875 -26.828125 C 64.054688 -23.984375 64.390625 -20.851562 64.796875 -17.4375 C 65.335938 -16.53125 66.0625 -15.335938 66.96875 -13.859375 C 68.539062 -11.148438 69.148438 -9.164062 68.796875 -7.90625 C 68.429688 -6.507812 67.863281 -5.585938 67.09375 -5.140625 C 64.164062 -3.648438 61.734375 -2.90625 59.796875 -2.90625 L 58.25 -2.90625 C 57.882812 -2.90625 57.566406 -2.953125 57.296875 -3.046875 C 56.578125 -5.253906 55.742188 -7.007812 54.796875 -8.3125 C 50.648438 -14.664062 43.421875 -18.765625 33.109375 -20.609375 C 28.472656 -21.460938 24.082031 -21.890625 19.9375 -21.890625 C 17.632812 -21.890625 15.039062 -21.6875 12.15625 -21.28125 C 9.957031 -22.863281 8.222656 -24.257812 6.953125 -25.46875 C 4.078125 -28.039062 2.640625 -30.070312 2.640625 -31.5625 C 2.640625 -34.800781 5.453125 -39.820312 11.078125 -46.625 C 15.128906 -51.625 19.226562 -55.972656 23.375 -59.671875 C 26.164062 -62.148438 30.425781 -65.097656 36.15625 -68.515625 C 37.320312 -69.148438 40.226562 -70.863281 44.875 -73.65625 C 37.125 -75.6875 31.109375 -76.703125 26.828125 -76.703125 C 12.910156 -76.703125 3.742188 -76 -0.671875 -74.59375 C -2.335938 -75.050781 -3.171875 -76.945312 -3.171875 -80.28125 C -3.171875 -82.21875 -3.035156 -83.5 -2.765625 -84.125 C 0.566406 -84.488281 5.003906 -84.671875 10.546875 -84.671875 L 15.34375 -84.671875 C 16.738281 -84.671875 18.628906 -84.488281 21.015625 -84.125 L 41.359375 -83.046875 C 46.359375 -82.773438 50.476562 -82.210938 53.71875 -81.359375 C 55.382812 -82.117188 57.140625 -82.5 58.984375 -82.5 C 60.703125 -82.5 62.4375 -82.253906 64.1875 -81.765625 C 64.507812 -81.765625 64.894531 -81.628906 65.34375 -81.359375 C 68.539062 -82.753906 71.3125 -83.453125 73.65625 -83.453125 C 74.019531 -83.453125 74.46875 -83.40625 75 -83.3125 C 75.269531 -82.863281 75.5 -82.4375 75.6875 -82.03125 C 76.269531 -81.039062 76.5625 -79.9375 76.5625 -78.71875 C 76.5625 -76.507812 75.953125 -75.132812 74.734375 -74.59375 Z M 54.9375 -70.28125 C 39.800781 -62.257812 28.40625 -50.457031 20.75 -34.875 L 29.1875 -33.65625 C 33.644531 -32.976562 38.535156 -30.835938 43.859375 -27.234375 C 47.816406 -24.578125 51.285156 -22.050781 54.265625 -19.65625 C 52.867188 -26.101562 52.171875 -34.304688 52.171875 -44.265625 C 52.171875 -53.859375 53.09375 -62.53125 54.9375 -70.28125 Z M 54.9375 -70.28125 "/></g></g><g style="fill:#a0332b;fill-opacity:1;"><g transform="translate(556.365377, 131.169394)"><path style="stroke:none" d="M 27.5625 -83.453125 C 27.5625 -83.003906 27.5625 -82.488281 27.5625 -81.90625 L 27.5625 -80.140625 C 27.5625 -77.347656 27.210938 -75.679688 26.515625 -75.140625 C 25.816406 -74.597656 24.097656 -74.328125 21.359375 -74.328125 L 19.265625 -74.328125 C 18.722656 -74.328125 18.222656 -74.375 17.765625 -74.46875 L 17.234375 -45.953125 C 17.234375 -45.503906 17.457031 -39.039062 17.90625 -26.5625 C 18 -24.351562 18.222656 -19.460938 18.578125 -11.890625 C 18.578125 -10.992188 18.734375 -9.492188 19.046875 -7.390625 C 19.367188 -5.296875 19.53125 -3.800781 19.53125 -2.90625 C 19.53125 -2.457031 19.484375 -2.140625 19.390625 -1.953125 C 18.492188 -1.191406 17.28125 -0.71875 15.75 -0.53125 C 14.21875 -0.351562 12.773438 -0.222656 11.421875 -0.140625 L 9.1875 0.140625 C 7.613281 0.140625 6.828125 -0.515625 6.828125 -1.828125 C 6.828125 -4.035156 6.960938 -6.242188 7.234375 -8.453125 C 7.234375 -14.617188 7.234375 -17.703125 7.234375 -17.703125 L 7.765625 -68.109375 C 7.765625 -72.253906 7.453125 -74.375 6.828125 -74.46875 C 4.972656 -74.375 3.53125 -74.328125 2.5 -74.328125 C 1.0625 -74.328125 -0.0390625 -74.460938 -0.8125 -74.734375 C -1.351562 -76.941406 -1.625 -78.789062 -1.625 -80.28125 C -1.625 -81.945312 -1.304688 -83.140625 -0.671875 -83.859375 C 0.628906 -84.035156 1.890625 -84.125 3.109375 -84.125 C 4.367188 -84.125 5.695312 -83.988281 7.09375 -83.71875 C 7 -85.207031 6.953125 -86.132812 6.953125 -86.5 L 7.234375 -87.84375 C 8.710938 -88.070312 10.515625 -88.1875 12.640625 -88.1875 C 16.691406 -88.1875 18.582031 -87.21875 18.3125 -85.28125 C 18.21875 -84.601562 18.128906 -84.039062 18.046875 -83.59375 C 20.335938 -83.59375 22.972656 -83.769531 25.953125 -84.125 C 26.941406 -84.125 27.476562 -83.898438 27.5625 -83.453125 Z M 27.5625 -83.453125 "/></g></g><g style="fill:#a0332b;fill-opacity:1;"><g transform="translate(581.500859, 131.169394)"><path style="stroke:none" d="M 36.21875 -48.1875 C 33.832031 -45.207031 32.117188 -43.269531 31.078125 -42.375 C 29.234375 -40.707031 27.34375 -39.875 25.40625 -39.875 C 22.75 -39.875 19.820312 -40.554688 16.625 -41.921875 C 13.425781 -43.296875 10.96875 -44.953125 9.25 -46.890625 C 6.1875 -50.316406 4.65625 -55.953125 4.65625 -63.796875 L 4.65625 -65.609375 C 4.84375 -66.242188 4.9375 -66.695312 4.9375 -66.96875 C 6.414062 -75.65625 10.46875 -80 17.09375 -80 C 19.976562 -80 22.835938 -79.53125 25.671875 -78.59375 C 29.460938 -77.414062 31.601562 -75.769531 32.09375 -73.65625 C 32.632812 -73.65625 33.535156 -74.101562 34.796875 -75 C 37.585938 -71.21875 38.984375 -66.015625 38.984375 -59.390625 C 38.984375 -54.210938 38.0625 -50.476562 36.21875 -48.1875 Z M 47.296875 -1.34375 L 45.078125 1.6875 C 39.984375 -5.875 33.425781 -11.796875 25.40625 -16.078125 C 22.75 -17.429688 17.207031 -19.078125 8.78125 -21.015625 C 7.34375 -24.253906 6.625 -27.40625 6.625 -30.46875 C 6.625 -32.945312 7.253906 -34.679688 8.515625 -35.671875 C 17.023438 -32.742188 23.894531 -28.875 29.125 -24.0625 C 30.070312 -23.25 32.890625 -20.023438 37.578125 -14.390625 C 38.785156 -12.898438 40.585938 -10.785156 42.984375 -8.046875 C 45.097656 -5.515625 46.535156 -3.28125 47.296875 -1.34375 Z M 32.90625 -66.6875 L 30.40625 -64.734375 C 29.78125 -67.972656 28.296875 -69.59375 25.953125 -69.59375 C 25.492188 -69.507812 25.128906 -69.46875 24.859375 -69.46875 C 21.710938 -69.019531 18.8125 -67.78125 16.15625 -65.75 C 13.09375 -63.445312 11.5625 -60.8125 11.5625 -57.84375 C 11.5625 -57.125 12.125 -55.097656 13.25 -51.765625 C 14.050781 -50.640625 16.210938 -50.078125 19.734375 -50.078125 L 21.828125 -50.078125 C 22.953125 -50.253906 23.785156 -50.34375 24.328125 -50.34375 C 27.429688 -50.65625 29.773438 -53.46875 31.359375 -58.78125 C 31.710938 -60 32.226562 -62.632812 32.90625 -66.6875 Z M 32.90625 -66.6875 "/></g></g><g style="fill:#a0332b;fill-opacity:1;"><g transform="translate(627.987986, 131.169394)"><path style="stroke:none" d="M 79.0625 -74.328125 C 77.664062 -74.597656 76.425781 -74.734375 75.34375 -74.734375 C 73.851562 -74.734375 72.835938 -74.460938 72.296875 -73.921875 C 71.171875 -68.835938 70.609375 -60.929688 70.609375 -50.203125 C 70.609375 -51.148438 70.65625 -46.914062 70.75 -37.5 C 70.65625 -34.84375 70.703125 -30.269531 70.890625 -23.78125 L 72.296875 -6.484375 C 72.753906 -5.765625 72.984375 -5.085938 72.984375 -4.453125 C 72.984375 -2.117188 71.316406 -0.953125 67.984375 -0.953125 C 65.773438 -0.953125 63.742188 -1.378906 61.890625 -2.234375 L 59.796875 -34.59375 C 56.867188 -39.1875 54.570312 -41.304688 52.90625 -40.953125 C 52.28125 -40.765625 50.953125 -38.96875 48.921875 -35.5625 C 46.890625 -32.164062 45.8125 -30.46875 45.6875 -30.46875 C 44.414062 -30.65625 42.769531 -30.882812 40.75 -31.15625 C 38.3125 -31.601562 36.914062 -32.300781 36.5625 -33.25 L 35.078125 -42.640625 C 33.941406 -48.628906 32.632812 -51.625 31.15625 -51.625 C 28.675781 -51.625 24.6875 -48.875 19.1875 -43.375 C 13.695312 -37.882812 10.816406 -33.851562 10.546875 -31.28125 C 10.273438 -29.070312 11.378906 -27.96875 13.859375 -27.96875 C 16.191406 -27.96875 18.734375 -29.613281 21.484375 -32.90625 C 22.609375 -34.21875 23.578125 -34.875 24.390625 -34.875 C 26.054688 -34.875 28.128906 -32.800781 30.609375 -28.65625 C 31.648438 -26.894531 32.078125 -25.566406 31.890625 -24.671875 C 31.398438 -22.734375 30.09375 -20.90625 27.96875 -19.1875 C 25.851562 -17.476562 23.828125 -16.625 21.890625 -16.625 C 17.835938 -16.976562 13.738281 -19.09375 9.59375 -22.96875 C 4.769531 -27.476562 2.359375 -32.679688 2.359375 -38.578125 C 2.359375 -42.546875 3.441406 -46.109375 5.609375 -49.265625 C 7.234375 -51.472656 9.984375 -54.109375 13.859375 -57.171875 C 20.160156 -62.035156 25.609375 -64.46875 30.203125 -64.46875 C 34.441406 -64.46875 37.957031 -61.378906 40.75 -55.203125 C 41.46875 -53.453125 42.300781 -50.929688 43.25 -47.640625 C 48.113281 -52.503906 50.972656 -54.890625 51.828125 -54.796875 C 52.816406 -54.796875 54.320312 -53.875 56.34375 -52.03125 C 58.375 -50.1875 59.726562 -48.722656 60.40625 -47.640625 L 60.6875 -69.46875 C 58.5625 -70.769531 55.328125 -72.082031 50.984375 -73.40625 C 46.640625 -74.738281 43.09375 -75.585938 40.34375 -75.953125 C 36.46875 -76.453125 31.757812 -76.703125 26.21875 -76.703125 C 17.519531 -76.703125 8.101562 -75.910156 -2.03125 -74.328125 C -3.78125 -76.085938 -4.65625 -77.890625 -4.65625 -79.734375 C -4.65625 -81.085938 -4.296875 -82.238281 -3.578125 -83.1875 C -3.265625 -83.457031 -2.882812 -83.769531 -2.4375 -84.125 C 8.332031 -84.125 15.429688 -84.082031 18.859375 -84 L 34.390625 -83.59375 C 44.796875 -83.320312 53.5625 -81.65625 60.6875 -78.59375 L 61.359375 -86.625 C 61.804688 -87.164062 63.179688 -87.4375 65.484375 -87.4375 C 70.660156 -87.4375 73.160156 -86.988281 72.984375 -86.09375 C 73.160156 -85.320312 73.25 -84.710938 73.25 -84.265625 L 73.25 -83.453125 C 74.28125 -83.628906 76.625 -83.851562 80.28125 -84.125 C 80.59375 -83.039062 80.75 -81.847656 80.75 -80.546875 C 80.75 -77.484375 80.1875 -75.410156 79.0625 -74.328125 Z M 79.0625 -74.328125 "/></g></g><g style="fill:#a0332b;fill-opacity:1;"><g transform="translate(705.151214, 131.169394)"><path style="stroke:none" d="M 27.5625 -83.453125 C 27.5625 -83.003906 27.5625 -82.488281 27.5625 -81.90625 L 27.5625 -80.140625 C 27.5625 -77.347656 27.210938 -75.679688 26.515625 -75.140625 C 25.816406 -74.597656 24.097656 -74.328125 21.359375 -74.328125 L 19.265625 -74.328125 C 18.722656 -74.328125 18.222656 -74.375 17.765625 -74.46875 L 17.234375 -45.953125 C 17.234375 -45.503906 17.457031 -39.039062 17.90625 -26.5625 C 18 -24.351562 18.222656 -19.460938 18.578125 -11.890625 C 18.578125 -10.992188 18.734375 -9.492188 19.046875 -7.390625 C 19.367188 -5.296875 19.53125 -3.800781 19.53125 -2.90625 C 19.53125 -2.457031 19.484375 -2.140625 19.390625 -1.953125 C 18.492188 -1.191406 17.28125 -0.71875 15.75 -0.53125 C 14.21875 -0.351562 12.773438 -0.222656 11.421875 -0.140625 L 9.1875 0.140625 C 7.613281 0.140625 6.828125 -0.515625 6.828125 -1.828125 C 6.828125 -4.035156 6.960938 -6.242188 7.234375 -8.453125 C 7.234375 -14.617188 7.234375 -17.703125 7.234375 -17.703125 L 7.765625 -68.109375 C 7.765625 -72.253906 7.453125 -74.375 6.828125 -74.46875 C 4.972656 -74.375 3.53125 -74.328125 2.5 -74.328125 C 1.0625 -74.328125 -0.0390625 -74.460938 -0.8125 -74.734375 C -1.351562 -76.941406 -1.625 -78.789062 -1.625 -80.28125 C -1.625 -81.945312 -1.304688 -83.140625 -0.671875 -83.859375 C 0.628906 -84.035156 1.890625 -84.125 3.109375 -84.125 C 4.367188 -84.125 5.695312 -83.988281 7.09375 -83.71875 C 7 -85.207031 6.953125 -86.132812 6.953125 -86.5 L 7.234375 -87.84375 C 8.710938 -88.070312 10.515625 -88.1875 12.640625 -88.1875 C 16.691406 -88.1875 18.582031 -87.21875 18.3125 -85.28125 C 18.21875 -84.601562 18.128906 -84.039062 18.046875 -83.59375 C 20.335938 -83.59375 22.972656 -83.769531 25.953125 -84.125 C 26.941406 -84.125 27.476562 -83.898438 27.5625 -83.453125 Z M 27.5625 -83.453125 "/></g></g><g style="fill:#265c3a;fill-opacity:1;"><g transform="translate(21.565207, 128.186973)"><path style="stroke:none" d="M 25.40625 -66.015625 C 25.40625 -63.515625 26.101562 -61.210938 27.5 -59.109375 C 28.90625 -57.003906 30.660156 -55.128906 32.765625 -53.484375 C 34.878906 -51.847656 37.769531 -49.820312 41.4375 -47.40625 C 45.726562 -44.59375 49.160156 -42.113281 51.734375 -39.96875 C 54.304688 -37.820312 56.507812 -35.242188 58.34375 -32.234375 C 60.175781 -29.234375 61.09375 -25.863281 61.09375 -22.125 C 61.09375 -17.988281 59.960938 -14.101562 57.703125 -10.46875 C 55.441406 -6.84375 52.046875 -3.898438 47.515625 -1.640625 C 42.992188 0.617188 37.535156 1.75 31.140625 1.75 C 17.398438 1.75 7.644531 -3.707031 1.875 -14.625 L 15.09375 -24.8125 C 18.84375 -17.082031 23.054688 -9.59375 27.734375 -2.34375 L 27.859375 -2.34375 C 30.117188 -2.34375 32.222656 -2.945312 34.171875 -4.15625 C 36.128906 -5.363281 37.691406 -6.941406 38.859375 -8.890625 C 40.023438 -10.847656 40.609375 -12.914062 40.609375 -15.09375 C 40.609375 -17.4375 39.925781 -19.601562 38.5625 -21.59375 C 37.195312 -23.582031 35.5 -25.335938 33.46875 -26.859375 C 31.445312 -28.378906 28.679688 -30.234375 25.171875 -32.421875 C 20.953125 -35.078125 17.554688 -37.414062 14.984375 -39.4375 C 12.410156 -41.46875 10.207031 -43.945312 8.375 -46.875 C 6.539062 -49.800781 5.625 -53.175781 5.625 -57 C 5.625 -61.289062 6.851562 -65.210938 9.3125 -68.765625 C 11.769531 -72.316406 15.28125 -75.101562 19.84375 -77.125 C 24.40625 -79.15625 29.769531 -80.171875 35.9375 -80.171875 C 41.945312 -80.171875 46.878906 -79.210938 50.734375 -77.296875 C 54.597656 -75.390625 58.09375 -72.679688 61.21875 -69.171875 L 48.921875 -56.765625 C 44.785156 -63.628906 40.613281 -70.066406 36.40625 -76.078125 C 32.894531 -76.078125 30.179688 -75.117188 28.265625 -73.203125 C 26.359375 -71.296875 25.40625 -68.898438 25.40625 -66.015625 Z M 25.40625 -66.015625 "/></g></g><g style="fill:#265c3a;fill-opacity:1;"><g transform="translate(82.53898, 128.186973)"><path style="stroke:none" d="M 87.90625 -52.671875 L 87.90625 -48.921875 L 84.515625 -48.8125 L 66.59375 -0.703125 L 55.015625 0 L 43.421875 -32.1875 L 32.421875 -0.703125 L 20.59375 0 L 2.21875 -48.8125 L -1.171875 -48.921875 L -1.171875 -52.671875 L 26.796875 -52.671875 L 26.796875 -48.921875 L 22.234375 -48.8125 L 31.71875 -14.15625 L 38.046875 -48.8125 L 34.0625 -48.921875 L 34.0625 -52.671875 L 60.859375 -52.671875 L 60.859375 -48.921875 L 56.890625 -48.8125 L 66.125 -14.515625 L 72.6875 -48.8125 L 68.125 -48.921875 L 68.125 -52.671875 Z M 87.90625 -52.671875 "/></g></g><g style="fill:#265c3a;fill-opacity:1;"><g transform="translate(165.749028, 128.186973)"><path style="stroke:none" d="M 50.09375 -6.09375 L 32.890625 1.984375 C 30.785156 0.503906 29.34375 -1.519531 28.5625 -4.09375 C 25.75 -2.375 22.914062 -0.972656 20.0625 0.109375 C 17.21875 1.203125 14.742188 1.75 12.640625 1.75 C 9.441406 1.75 6.828125 0.617188 4.796875 -1.640625 C 2.765625 -3.898438 1.75 -6.785156 1.75 -10.296875 C 1.75 -11.859375 1.925781 -13.554688 2.28125 -15.390625 C 2.632812 -17.222656 3.082031 -18.6875 3.625 -19.78125 L 28.4375 -23.765625 L 28.671875 -27.15625 C 28.828125 -30.664062 28.085938 -33.414062 26.453125 -35.40625 C 24.816406 -37.394531 22.164062 -38.390625 18.5 -38.390625 C 16.851562 -38.390625 15.132812 -38.210938 13.34375 -37.859375 C 11.550781 -37.515625 10.03125 -37.066406 8.78125 -36.515625 L 6.90625 -32.53125 L 3.75 -33.703125 L 9.125 -50.5625 C 15.132812 -53.132812 20.832031 -54.421875 26.21875 -54.421875 C 31.757812 -54.421875 36.285156 -52.957031 39.796875 -50.03125 C 43.304688 -47.101562 45.0625 -42.519531 45.0625 -36.28125 L 44.953125 -33.9375 L 43.78125 -18.140625 L 43.546875 -13.921875 C 43.546875 -12.523438 43.660156 -11.414062 43.890625 -10.59375 C 44.128906 -9.769531 44.519531 -8.929688 45.0625 -8.078125 L 48.6875 -9.484375 Z M 23.53125 -6.671875 C 24.78125 -6.671875 26.222656 -7.140625 27.859375 -8.078125 L 27.734375 -10.53125 L 27.859375 -13.109375 L 28.203125 -19.78125 L 19.203125 -17.671875 C 18.890625 -16.660156 18.734375 -15.296875 18.734375 -13.578125 C 18.734375 -11.234375 19.195312 -9.492188 20.125 -8.359375 C 21.0625 -7.234375 22.195312 -6.671875 23.53125 -6.671875 Z M 23.53125 -6.671875 "/></g></g><g style="fill:#265c3a;fill-opacity:1;"><g transform="translate(216.424407, 128.186973)"><path style="stroke:none" d="M 50.09375 -6.09375 L 32.890625 1.984375 C 30.785156 0.503906 29.34375 -1.519531 28.5625 -4.09375 C 25.75 -2.375 22.914062 -0.972656 20.0625 0.109375 C 17.21875 1.203125 14.742188 1.75 12.640625 1.75 C 9.441406 1.75 6.828125 0.617188 4.796875 -1.640625 C 2.765625 -3.898438 1.75 -6.785156 1.75 -10.296875 C 1.75 -11.859375 1.925781 -13.554688 2.28125 -15.390625 C 2.632812 -17.222656 3.082031 -18.6875 3.625 -19.78125 L 28.4375 -23.765625 L 28.671875 -27.15625 C 28.828125 -30.664062 28.085938 -33.414062 26.453125 -35.40625 C 24.816406 -37.394531 22.164062 -38.390625 18.5 -38.390625 C 16.851562 -38.390625 15.132812 -38.210938 13.34375 -37.859375 C 11.550781 -37.515625 10.03125 -37.066406 8.78125 -36.515625 L 6.90625 -32.53125 L 3.75 -33.703125 L 9.125 -50.5625 C 15.132812 -53.132812 20.832031 -54.421875 26.21875 -54.421875 C 31.757812 -54.421875 36.285156 -52.957031 39.796875 -50.03125 C 43.304688 -47.101562 45.0625 -42.519531 45.0625 -36.28125 L 44.953125 -33.9375 L 43.78125 -18.140625 L 43.546875 -13.921875 C 43.546875 -12.523438 43.660156 -11.414062 43.890625 -10.59375 C 44.128906 -9.769531 44.519531 -8.929688 45.0625 -8.078125 L 48.6875 -9.484375 Z M 23.53125 -6.671875 C 24.78125 -6.671875 26.222656 -7.140625 27.859375 -8.078125 L 27.734375 -10.53125 L 27.859375 -13.109375 L 28.203125 -19.78125 L 19.203125 -17.671875 C 18.890625 -16.660156 18.734375 -15.296875 18.734375 -13.578125 C 18.734375 -11.234375 19.195312 -9.492188 20.125 -8.359375 C 21.0625 -7.234375 22.195312 -6.671875 23.53125 -6.671875 Z M 23.53125 -6.671875 "/></g></g><g style="fill:#265c3a;fill-opacity:1;"><g transform="translate(266.514542, 128.186973)"><path style="stroke:none" d="M 60.625 -8.078125 L 43.546875 1.171875 C 41.429688 -0.078125 39.882812 -1.734375 38.90625 -3.796875 C 37.9375 -5.867188 37.375 -8.546875 37.21875 -11.828125 L 25.640625 1.75 C 21.109375 1.75 17.101562 0.71875 13.625 -1.34375 C 10.15625 -3.414062 7.445312 -6.265625 5.5 -9.890625 C 3.550781 -13.515625 2.578125 -17.628906 2.578125 -22.234375 C 2.578125 -26.210938 3.238281 -30.425781 4.5625 -34.875 C 5.882812 -39.320312 7.484375 -42.796875 9.359375 -45.296875 C 10.847656 -47.398438 13.539062 -49.445312 17.4375 -51.4375 C 21.34375 -53.425781 24.617188 -54.421875 27.265625 -54.421875 C 29.609375 -54.421875 32.8125 -54.03125 36.875 -53.25 L 36.640625 -73.859375 L 32.1875 -72.921875 L 31.015625 -76.3125 L 52.671875 -82.875 L 54.3125 -80.0625 L 53.609375 -19.4375 C 53.609375 -16.625 53.765625 -14.535156 54.078125 -13.171875 C 54.390625 -11.804688 54.9375 -10.613281 55.71875 -9.59375 L 59.21875 -11.234375 Z M 19.4375 -29.265625 C 19.4375 -25.671875 20.019531 -22.546875 21.1875 -19.890625 C 22.351562 -17.242188 23.890625 -15.21875 25.796875 -13.8125 C 27.710938 -12.40625 29.765625 -11.703125 31.953125 -11.703125 L 37.21875 -16.96875 L 36.984375 -40.609375 C 31.910156 -43.035156 27.035156 -44.675781 22.359375 -45.53125 C 20.410156 -41.082031 19.4375 -35.660156 19.4375 -29.265625 Z M 19.4375 -29.265625 "/></g></g><g style="fill:#265c3a;fill-opacity:1;"><g transform="translate(327.605781, 128.186973)"><path style="stroke:none" d="M 3.515625 -32.65625 L 40.140625 -33.59375 L 38.984375 -28.203125 L 2.921875 -28.203125 Z M 3.515625 -32.65625 "/></g></g><g style="fill:#265c3a;fill-opacity:1;"><g transform="translate(371.493168, 128.186973)"><path style="stroke:none" d="M 63.5625 -23.296875 L 63.5625 0 L 4.21875 0 L 4.21875 -4.09375 L 9.953125 -4.21875 L 9.953125 -74.203125 L 4.21875 -74.328125 L 4.21875 -78.421875 L 61.21875 -78.421875 L 61.21875 -55.71875 L 56.65625 -55.828125 L 56.421875 -61.6875 C 47.753906 -67.070312 38.738281 -71.597656 29.375 -75.265625 L 29.609375 -42.71875 L 51.5 -42.71875 L 51.5 -38.390625 L 29.609375 -38.390625 L 29.84375 -3.28125 C 39.832031 -7.101562 49.46875 -11.785156 58.75 -17.328125 L 58.984375 -23.171875 Z M 63.5625 -23.296875 "/></g></g><g style="fill:#265c3a;fill-opacity:1;"><g transform="translate(437.967958, 128.186973)"><path style="stroke:none" d="M 3.515625 -32.65625 L 40.140625 -33.59375 L 38.984375 -28.203125 L 2.921875 -28.203125 Z M 3.515625 -32.65625 "/></g></g></g></svg>